# xmcd
#
# Track frame offsets:
#	150
#	6861
#	49161
#	78808
#	87689
#	91013
#	116813
#	128153
#	146400
#	161400
#
# Disc length: 2348 seconds
#
# Revision: 1
# Processed by: cddbd v1.5.1PL2 Copyright (c) Steve Scherf et al.
# Submitted via: EasyCDDAExtractor 5.0.7
#
DISCID=77092a0a
DTITLE=Vázsonyi János - Vonósnégyesek
DYEAR=1900
DGENRE=
TTITLE0=Variatio I.
TTITLE1=Folyik a víz, áll a part
TTITLE2=Dunaparton van egy malom
TTITLE3=Variatio II.
TTITLE4=Szivárvány havasán
TTITLE5=Ankara
TTITLE6=Variatio III.
TTITLE7=Páratlan mulatságok
TTITLE8=A part alatt
TTITLE9=Variatio IV.
EXTD=
EXTT0=
EXTT1=
EXTT2=
EXTT3=
EXTT4=
EXTT5=
EXTT6=
EXTT7=
EXTT8=
EXTT9=
PLAYORDER=
